<svg xmlns="http://www.w3.org/2000/svg" xmlns:xlink="http://www.w3.org/1999/xlink" width="500" zoomAndPan="magnify" viewBox="0 0 375 374.999991" height="500" preserveAspectRatio="xMidYMid meet" version="1.0"><defs><g/><clipPath id="47cfce4f4d"><path d="M 114.671875 75.140625 L 245 75.140625 L 245 198.890625 L 114.671875 198.890625 Z M 114.671875 75.140625 " clip-rule="nonzero"/></clipPath><clipPath id="411dd630c6"><path d="M 149 83 L 260.171875 83 L 260.171875 187 L 149 187 Z M 149 83 " clip-rule="nonzero"/></clipPath></defs><rect x="-37.5" width="450" fill="#ffffff" y="-37.499999" height="449.999989" fill-opacity="1"/><rect x="-37.5" width="450" fill="#ffffff" y="-37.499999" height="449.999989" fill-opacity="1"/><rect x="-37.5" width="450" fill="#e9e6e6" y="-37.499999" height="449.999989" fill-opacity="1"/><g clip-path="url(#47cfce4f4d)"><path fill="#ff914d" d="M 244.648438 168.105469 C 130.699219 237.839844 88.75 123.503906 212.582031 75.140625 L 139.4375 75.140625 L 155.75 84.554688 C 64.90625 151.714844 138.226562 249.289062 244.648438 168.105469 Z M 244.648438 168.105469 " fill-opacity="1" fill-rule="evenodd"/></g><g clip-path="url(#411dd630c6)"><path fill="#ffbd59" d="M 164.515625 181.75 L 164.515625 149.289062 L 182.992188 149.289062 L 182.992188 186.007812 C 186.808594 186.050781 190.710938 185.679688 194.636719 184.980469 L 194.636719 139.671875 L 213.117188 139.671875 L 213.117188 179.621094 C 217.089844 178.074219 220.992188 176.332031 224.761719 174.488281 L 224.761719 130.054688 L 243.238281 130.054688 L 243.238281 164.242188 C 243.851562 163.867188 244.453125 163.492188 245.046875 163.125 C 274.539062 140.261719 259.941406 96.203125 209.671875 83.246094 L 192.84375 128.832031 L 184.046875 110.210938 C 150.710938 128.769531 142.289062 159.4375 155.769531 175.554688 C 158.5 178.140625 161.429688 180.183594 164.515625 181.753906 Z M 164.515625 181.75 " fill-opacity="1" fill-rule="evenodd"/></g><g fill="#ffffff" fill-opacity="1"><g transform="translate(94.699041, 269.271194)"><g><path d="M 15.28125 0.140625 C 14.53125 0.046875 12.601562 0 9.5 0 L 8.75 0 L 8.75 -25.921875 L 4.109375 -25.921875 C 2.734375 -25.921875 1.921875 -25.847656 1.671875 -25.703125 C 1.421875 -25.566406 1.222656 -25.445312 1.078125 -25.34375 L 1.015625 -25.359375 L 1.015625 -31.359375 L 1.078125 -31.4375 C 1.597656 -31.257812 2.988281 -31.171875 5.25 -31.171875 L 19.953125 -31.171875 C 21.328125 -31.171875 22.140625 -31.238281 22.390625 -31.375 C 22.640625 -31.519531 22.832031 -31.648438 22.96875 -31.765625 L 23.046875 -31.734375 L 23.046875 -25.734375 L 22.96875 -25.671875 C 22.457031 -25.835938 21.066406 -25.921875 18.796875 -25.921875 L 15.28125 -25.921875 Z M 15.28125 0.140625 "/></g></g></g><g fill="#ffffff" fill-opacity="1"><g transform="translate(125.465913, 269.271194)"><g><path d="M 4.765625 -31.265625 C 6.328125 -31.203125 7.269531 -31.171875 7.59375 -31.171875 L 9.28125 -31.171875 C 10.113281 -31.171875 10.78125 -31.234375 11.28125 -31.359375 L 11.25 0 L 4.765625 0 Z M 4.765625 -31.265625 "/></g></g></g><g fill="#ffffff" fill-opacity="1"><g transform="translate(148.217161, 269.271194)"><g><path d="M 15.28125 0.140625 C 14.53125 0.046875 12.601562 0 9.5 0 L 8.75 0 L 8.75 -25.921875 L 4.109375 -25.921875 C 2.734375 -25.921875 1.921875 -25.847656 1.671875 -25.703125 C 1.421875 -25.566406 1.222656 -25.445312 1.078125 -25.34375 L 1.015625 -25.359375 L 1.015625 -31.359375 L 1.078125 -31.4375 C 1.597656 -31.257812 2.988281 -31.171875 5.25 -31.171875 L 19.953125 -31.171875 C 21.328125 -31.171875 22.140625 -31.238281 22.390625 -31.375 C 22.640625 -31.519531 22.832031 -31.648438 22.96875 -31.765625 L 23.046875 -31.734375 L 23.046875 -25.734375 L 22.96875 -25.671875 C 22.457031 -25.835938 21.066406 -25.921875 18.796875 -25.921875 L 15.28125 -25.921875 Z M 15.28125 0.140625 "/></g></g></g><g fill="#ffffff" fill-opacity="1"><g transform="translate(178.984033, 269.271194)"><g><path d="M 6.3125 0.1875 C 4.96875 0.0625 3.394531 0 1.59375 0 L -0.265625 0 L 9.9375 -28.578125 C 10.394531 -29.859375 10.625 -30.601562 10.625 -30.8125 C 10.625 -31.019531 10.613281 -31.148438 10.59375 -31.203125 L 10.625 -31.25 C 11.632812 -31.195312 12.710938 -31.171875 13.859375 -31.171875 C 14.796875 -31.171875 15.921875 -31.1875 17.234375 -31.21875 L 17.25 -31.171875 C 17.21875 -31.109375 17.203125 -31.023438 17.203125 -30.921875 C 17.203125 -30.617188 17.4375 -29.828125 17.90625 -28.546875 L 28.3125 0.078125 C 28 0.0546875 27.632812 0.046875 27.21875 0.046875 C 27.21875 0.046875 26.8125 0.03125 26 0 C 25.601562 0 25.25 0 24.9375 0 L 21.3125 0 L 19.109375 -6.75 L 8.515625 -6.75 Z M 17.28125 -12.375 L 13.734375 -23.28125 L 10.296875 -12.375 Z M 17.28125 -12.375 "/></g></g></g><g fill="#ffffff" fill-opacity="1"><g transform="translate(213.758718, 269.271194)"><g><path d="M 4.25 0 C 4.34375 -0.53125 4.390625 -1.109375 4.390625 -1.734375 L 4.390625 -31.171875 L 9.078125 -31.171875 L 21.5 -11.625 L 21.5 -29.578125 C 21.5 -30.441406 21.421875 -30.972656 21.265625 -31.171875 L 27.59375 -31.171875 C 27.507812 -30.546875 27.46875 -29.859375 27.46875 -29.109375 L 27.46875 0 L 22.59375 0 L 10.359375 -18.78125 L 10.359375 0 Z M 4.25 0 "/></g></g></g><g fill="#ffffff" fill-opacity="1"><g transform="translate(252.330271, 269.271194)"><g><path d="M 22.859375 -29.4375 L 22.40625 -22.546875 L 22.25 -22.5 C 21.09375 -24.238281 19.125 -25.363281 16.34375 -25.875 C 15.46875 -26.050781 14.625 -26.140625 13.8125 -26.140625 C 13.007812 -26.140625 12.320312 -26.066406 11.75 -25.921875 C 11.1875 -25.785156 10.703125 -25.582031 10.296875 -25.3125 C 9.429688 -24.75 9 -24.015625 9 -23.109375 C 9 -21.921875 9.375 -21.03125 10.125 -20.4375 C 11.0625 -19.71875 12.613281 -19.210938 14.78125 -18.921875 C 16.957031 -18.640625 18.703125 -18.25 20.015625 -17.75 C 21.328125 -17.25 22.40625 -16.613281 23.25 -15.84375 C 24.84375 -14.40625 25.640625 -12.375 25.640625 -9.75 C 25.640625 -6.3125 24.34375 -3.664062 21.75 -1.8125 C 19.53125 -0.207031 16.734375 0.59375 13.359375 0.59375 C 10.640625 0.59375 7.953125 0.0703125 5.296875 -0.96875 C 4.421875 -1.3125 3.65625 -1.707031 3 -2.15625 L 3.265625 -9.984375 L 3.359375 -10.0625 C 5.296875 -6.71875 8.472656 -5.046875 12.890625 -5.046875 C 16.035156 -5.046875 18.113281 -5.800781 19.125 -7.3125 C 19.46875 -7.832031 19.640625 -8.40625 19.640625 -9.03125 C 19.640625 -9.664062 19.535156 -10.191406 19.328125 -10.609375 C 19.128906 -11.023438 18.796875 -11.378906 18.328125 -11.671875 C 17.421875 -12.265625 15.894531 -12.660156 13.75 -12.859375 C 11.613281 -13.066406 9.863281 -13.453125 8.5 -14.015625 C 7.144531 -14.578125 6.0625 -15.273438 5.25 -16.109375 C 3.78125 -17.609375 3.046875 -19.703125 3.046875 -22.390625 C 3.046875 -25.171875 4.023438 -27.421875 5.984375 -29.140625 C 7.960938 -30.890625 10.632812 -31.765625 14 -31.765625 C 17.375 -31.765625 20.328125 -30.988281 22.859375 -29.4375 Z M 22.859375 -29.4375 "/></g></g></g><g fill="#ffffff" fill-opacity="1"><g transform="translate(131.173289, 314.449549)"><g><path d="M 10.578125 -1.765625 C 10.617188 -1.304688 10.738281 -0.96875 10.9375 -0.75 C 11.132812 -0.539062 11.359375 -0.429688 11.609375 -0.421875 L 11.53125 0 C 10.96875 -0.0390625 10.203125 -0.0625 9.234375 -0.0625 C 8.097656 -0.0625 7.257812 -0.0390625 6.71875 0 L 6.796875 -0.421875 C 7.273438 -0.453125 7.644531 -0.507812 7.90625 -0.59375 C 8.164062 -0.6875 8.347656 -0.851562 8.453125 -1.09375 C 8.566406 -1.34375 8.617188 -1.707031 8.609375 -2.1875 L 8.421875 -5.625 L 3.25 -5.625 L 1.6875 -3.40625 C 1.019531 -2.476562 0.6875 -1.785156 0.6875 -1.328125 C 0.6875 -0.753906 1.207031 -0.453125 2.25 -0.421875 L 2.140625 0 C 1.367188 -0.0390625 0.570312 -0.0625 -0.25 -0.0625 C -0.851562 -0.0625 -1.378906 -0.0390625 -1.828125 0 L -1.71875 -0.421875 C -1.070312 -0.554688 -0.375 -1.164062 0.375 -2.25 L 9.421875 -14.96875 L 9.75 -14.96875 Z M 8.40625 -6.046875 L 8.046875 -12.40625 L 3.546875 -6.046875 Z M 8.40625 -6.046875 "/></g></g></g><g fill="#ffffff" fill-opacity="1"><g transform="translate(149.128344, 314.449549)"><g><path d="M 9.90625 -3.40625 L 10.3125 -3.40625 L 9.828125 -1.875 C 9.585938 -1.101562 9.242188 -0.546875 8.796875 -0.203125 C 8.347656 0.128906 7.878906 0.296875 7.390625 0.296875 C 6.953125 0.296875 6.617188 0.1875 6.390625 -0.03125 C 6.171875 -0.257812 6.0625 -0.585938 6.0625 -1.015625 C 6.0625 -1.398438 6.15625 -1.941406 6.34375 -2.640625 L 6.640625 -3.71875 C 5.984375 -2.300781 5.3125 -1.273438 4.625 -0.640625 C 3.9375 -0.015625 3.207031 0.296875 2.4375 0.296875 C 1.75 0.296875 1.210938 0.0664062 0.828125 -0.390625 C 0.441406 -0.859375 0.25 -1.554688 0.25 -2.484375 C 0.25 -3.640625 0.550781 -4.894531 1.15625 -6.25 C 1.769531 -7.613281 2.597656 -8.757812 3.640625 -9.6875 C 4.679688 -10.625 5.8125 -11.09375 7.03125 -11.09375 C 7.3125 -11.09375 7.570312 -11 7.8125 -10.8125 C 8.050781 -10.632812 8.21875 -10.390625 8.3125 -10.078125 L 9.359375 -14 C 9.421875 -14.1875 9.453125 -14.378906 9.453125 -14.578125 C 9.453125 -14.859375 9.34375 -15.0625 9.125 -15.1875 C 8.90625 -15.320312 8.535156 -15.390625 8.015625 -15.390625 L 8.140625 -15.828125 C 8.890625 -15.847656 9.5625 -15.925781 10.15625 -16.0625 C 10.75 -16.207031 11.316406 -16.414062 11.859375 -16.6875 L 7.75 -1.78125 C 7.664062 -1.445312 7.625 -1.210938 7.625 -1.078125 C 7.625 -0.679688 7.789062 -0.484375 8.125 -0.484375 C 8.40625 -0.484375 8.664062 -0.644531 8.90625 -0.96875 C 9.144531 -1.289062 9.394531 -1.84375 9.65625 -2.625 Z M 3.046875 -0.375 C 3.460938 -0.375 3.941406 -0.664062 4.484375 -1.25 C 5.035156 -1.84375 5.578125 -2.632812 6.109375 -3.625 C 6.640625 -4.613281 7.082031 -5.664062 7.4375 -6.78125 L 8.171875 -9.53125 C 8.085938 -9.894531 7.941406 -10.164062 7.734375 -10.34375 C 7.535156 -10.519531 7.3125 -10.609375 7.0625 -10.609375 C 6.207031 -10.609375 5.398438 -10.15625 4.640625 -9.25 C 3.878906 -8.34375 3.269531 -7.222656 2.8125 -5.890625 C 2.351562 -4.566406 2.125 -3.335938 2.125 -2.203125 C 2.125 -0.984375 2.429688 -0.375 3.046875 -0.375 Z M 3.046875 -0.375 "/></g></g></g><g fill="#ffffff" fill-opacity="1"><g transform="translate(165.256384, 314.449549)"><g><path d="M 9.953125 -7.953125 C 9.515625 -8.171875 9.148438 -8.457031 8.859375 -8.8125 C 8.566406 -9.175781 8.421875 -9.597656 8.421875 -10.078125 C 8.421875 -10.429688 8.515625 -10.691406 8.703125 -10.859375 C 8.890625 -11.023438 9.101562 -11.109375 9.34375 -11.109375 C 9.738281 -11.109375 10.03125 -10.914062 10.21875 -10.53125 C 10.414062 -10.15625 10.515625 -9.640625 10.515625 -8.984375 C 10.515625 -8.617188 10.503906 -8.335938 10.484375 -8.140625 C 10.316406 -6.703125 9.945312 -5.335938 9.375 -4.046875 C 8.8125 -2.765625 8.054688 -1.71875 7.109375 -0.90625 C 6.160156 -0.101562 5.070312 0.296875 3.84375 0.296875 C 2.957031 0.296875 2.328125 0.046875 1.953125 -0.453125 C 1.578125 -0.960938 1.410156 -1.582031 1.453125 -2.3125 C 1.535156 -3.457031 2.015625 -4.738281 2.890625 -6.15625 C 3.765625 -7.570312 4.910156 -8.953125 6.328125 -10.296875 C 5.972656 -10.148438 5.570312 -9.9375 5.125 -9.65625 C 4.769531 -9.4375 4.46875 -9.265625 4.21875 -9.140625 C 3.96875 -9.023438 3.742188 -8.96875 3.546875 -8.96875 C 3.390625 -8.96875 3.238281 -9.007812 3.09375 -9.09375 C 2.957031 -9.175781 2.867188 -9.222656 2.828125 -9.234375 C 2.578125 -9.398438 2.375 -9.484375 2.21875 -9.484375 C 2 -9.484375 1.816406 -9.390625 1.671875 -9.203125 C 1.523438 -9.015625 1.367188 -8.675781 1.203125 -8.1875 L 0.96875 -7.40625 L 0.5625 -7.40625 L 1.03125 -8.953125 C 1.414062 -10.378906 2.070312 -11.09375 3 -11.09375 C 3.1875 -11.09375 3.34375 -11.0625 3.46875 -11 C 3.59375 -10.9375 3.753906 -10.832031 3.953125 -10.6875 C 4.128906 -10.550781 4.285156 -10.445312 4.421875 -10.375 C 4.566406 -10.300781 4.726562 -10.265625 4.90625 -10.265625 C 5.613281 -10.265625 6.203125 -10.484375 6.671875 -10.921875 L 6.890625 -11.3125 L 7.328125 -11.109375 C 6.191406 -9.710938 5.304688 -8.316406 4.671875 -6.921875 C 4.046875 -5.535156 3.671875 -4.117188 3.546875 -2.671875 C 3.535156 -2.546875 3.53125 -2.375 3.53125 -2.15625 C 3.53125 -0.988281 3.835938 -0.40625 4.453125 -0.40625 C 5.472656 -0.40625 6.394531 -0.832031 7.21875 -1.6875 C 8.050781 -2.539062 8.703125 -3.5625 9.171875 -4.75 C 9.648438 -5.945312 9.910156 -7.015625 9.953125 -7.953125 Z M 9.953125 -7.953125 "/></g></g></g><g fill="#ffffff" fill-opacity="1"><g transform="translate(181.195422, 314.449549)"><g><path d="M 3.953125 -14.34375 C 3.953125 -14.757812 4.109375 -15.128906 4.421875 -15.453125 C 4.734375 -15.785156 5.09375 -15.953125 5.5 -15.953125 C 5.820312 -15.953125 6.082031 -15.847656 6.28125 -15.640625 C 6.476562 -15.429688 6.578125 -15.175781 6.578125 -14.875 C 6.578125 -14.445312 6.414062 -14.070312 6.09375 -13.75 C 5.769531 -13.425781 5.40625 -13.265625 5 -13.265625 C 4.6875 -13.265625 4.429688 -13.363281 4.234375 -13.5625 C 4.046875 -13.769531 3.953125 -14.03125 3.953125 -14.34375 Z M 3.3125 -9.015625 C 3.425781 -9.347656 3.484375 -9.601562 3.484375 -9.78125 C 3.484375 -10.132812 3.332031 -10.3125 3.03125 -10.3125 C 2.707031 -10.3125 2.414062 -10.140625 2.15625 -9.796875 C 1.90625 -9.460938 1.640625 -8.921875 1.359375 -8.171875 L 1.078125 -7.390625 L 0.671875 -7.390625 L 1.21875 -8.921875 C 1.5 -9.722656 1.875 -10.285156 2.34375 -10.609375 C 2.8125 -10.929688 3.304688 -11.09375 3.828125 -11.09375 C 4.742188 -11.09375 5.203125 -10.648438 5.203125 -9.765625 C 5.203125 -9.304688 5.09375 -8.765625 4.875 -8.140625 L 2.625 -1.78125 C 2.507812 -1.445312 2.453125 -1.191406 2.453125 -1.015625 C 2.453125 -0.660156 2.625 -0.484375 2.96875 -0.484375 C 3.257812 -0.484375 3.53125 -0.644531 3.78125 -0.96875 C 4.03125 -1.289062 4.300781 -1.84375 4.59375 -2.625 L 4.890625 -3.40625 L 5.296875 -3.40625 L 4.75 -1.875 C 4.46875 -1.101562 4.097656 -0.546875 3.640625 -0.203125 C 3.191406 0.128906 2.695312 0.296875 2.15625 0.296875 C 1.175781 0.296875 0.6875 -0.128906 0.6875 -0.984375 C 0.6875 -1.390625 0.816406 -1.941406 1.078125 -2.640625 Z M 3.3125 -9.015625 "/></g></g></g><g fill="#ffffff" fill-opacity="1"><g transform="translate(192.283453, 314.449549)"><g><path d="M 1.234375 -0.3125 C 1.378906 -0.238281 1.515625 -0.1875 1.640625 -0.15625 C 1.773438 -0.132812 1.960938 -0.125 2.203125 -0.125 C 2.835938 -0.125 3.347656 -0.3125 3.734375 -0.6875 C 4.128906 -1.070312 4.328125 -1.601562 4.328125 -2.28125 C 4.328125 -2.738281 4.242188 -3.175781 4.078125 -3.59375 C 3.910156 -4.019531 3.628906 -4.507812 3.234375 -5.0625 C 2.753906 -5.707031 2.40625 -6.234375 2.1875 -6.640625 C 1.976562 -7.054688 1.875 -7.546875 1.875 -8.109375 C 1.875 -8.679688 2.019531 -9.191406 2.3125 -9.640625 C 2.601562 -10.097656 2.992188 -10.453125 3.484375 -10.703125 C 3.984375 -10.960938 4.53125 -11.09375 5.125 -11.09375 C 5.851562 -11.09375 6.460938 -10.953125 6.953125 -10.671875 C 7.441406 -10.398438 7.6875 -9.929688 7.6875 -9.265625 C 7.6875 -9.015625 7.601562 -8.769531 7.4375 -8.53125 C 7.28125 -8.289062 7.039062 -8.171875 6.71875 -8.171875 C 6.476562 -8.171875 6.273438 -8.253906 6.109375 -8.421875 C 5.953125 -8.585938 5.875 -8.796875 5.875 -9.046875 C 5.875 -9.492188 6.070312 -9.960938 6.46875 -10.453125 C 6.195312 -10.617188 5.847656 -10.703125 5.421875 -10.703125 C 4.890625 -10.703125 4.453125 -10.523438 4.109375 -10.171875 C 3.765625 -9.816406 3.59375 -9.332031 3.59375 -8.71875 C 3.59375 -8.351562 3.65625 -8.039062 3.78125 -7.78125 C 3.90625 -7.519531 4.132812 -7.140625 4.46875 -6.640625 L 4.84375 -6.09375 C 5.269531 -5.445312 5.582031 -4.890625 5.78125 -4.421875 C 5.988281 -3.960938 6.09375 -3.488281 6.09375 -3 C 6.09375 -2.375 5.925781 -1.804688 5.59375 -1.296875 C 5.269531 -0.796875 4.828125 -0.40625 4.265625 -0.125 C 3.710938 0.15625 3.117188 0.296875 2.484375 0.296875 C 1.679688 0.296875 1.003906 0.125 0.453125 -0.21875 C -0.0859375 -0.5625 -0.359375 -1.082031 -0.359375 -1.78125 C -0.359375 -2.019531 -0.289062 -2.238281 -0.15625 -2.4375 C -0.0195312 -2.632812 0.1875 -2.734375 0.46875 -2.734375 C 0.769531 -2.734375 1 -2.601562 1.15625 -2.34375 C 1.3125 -2.09375 1.390625 -1.78125 1.390625 -1.40625 C 1.390625 -1.164062 1.335938 -0.800781 1.234375 -0.3125 Z M 1.234375 -0.3125 "/></g></g></g><g fill="#ffffff" fill-opacity="1"><g transform="translate(205.030488, 314.449549)"><g><path d="M 0.4375 -3 C 0.4375 -4.101562 0.679688 -5.289062 1.171875 -6.5625 C 1.660156 -7.832031 2.367188 -8.90625 3.296875 -9.78125 C 4.222656 -10.65625 5.296875 -11.09375 6.515625 -11.09375 C 7.410156 -11.09375 8.113281 -10.8125 8.625 -10.25 C 9.132812 -9.695312 9.390625 -8.878906 9.390625 -7.796875 C 9.390625 -6.679688 9.144531 -5.488281 8.65625 -4.21875 C 8.164062 -2.957031 7.457031 -1.890625 6.53125 -1.015625 C 5.601562 -0.140625 4.53125 0.296875 3.3125 0.296875 C 2.414062 0.296875 1.710938 0.0195312 1.203125 -0.53125 C 0.691406 -1.082031 0.4375 -1.90625 0.4375 -3 Z M 6.390625 -10.671875 C 5.671875 -10.671875 4.992188 -10.210938 4.359375 -9.296875 C 3.722656 -8.390625 3.210938 -7.253906 2.828125 -5.890625 C 2.441406 -4.523438 2.25 -3.210938 2.25 -1.953125 C 2.25 -1.328125 2.34375 -0.863281 2.53125 -0.5625 C 2.726562 -0.269531 3.03125 -0.125 3.4375 -0.125 C 4.15625 -0.125 4.832031 -0.578125 5.46875 -1.484375 C 6.101562 -2.398438 6.613281 -3.539062 7 -4.90625 C 7.382812 -6.269531 7.578125 -7.582031 7.578125 -8.84375 C 7.578125 -9.46875 7.476562 -9.925781 7.28125 -10.21875 C 7.09375 -10.519531 6.796875 -10.671875 6.390625 -10.671875 Z M 6.390625 -10.671875 "/></g></g></g><g fill="#ffffff" fill-opacity="1"><g transform="translate(220.024536, 314.449549)"><g><path d="M 8.296875 -11.09375 C 8.671875 -11.09375 8.96875 -10.976562 9.1875 -10.75 C 9.414062 -10.53125 9.53125 -10.242188 9.53125 -9.890625 C 9.53125 -9.472656 9.382812 -9.113281 9.09375 -8.8125 C 8.800781 -8.519531 8.457031 -8.375 8.0625 -8.375 C 7.8125 -8.375 7.609375 -8.441406 7.453125 -8.578125 C 7.296875 -8.710938 7.21875 -8.898438 7.21875 -9.140625 C 7.21875 -9.460938 7.300781 -9.734375 7.46875 -9.953125 C 7.644531 -10.179688 7.878906 -10.359375 8.171875 -10.484375 C 8.109375 -10.535156 8.03125 -10.5625 7.9375 -10.5625 C 7.175781 -10.5625 6.351562 -9.742188 5.46875 -8.109375 C 4.582031 -6.484375 3.75 -4.332031 2.96875 -1.65625 L 2.546875 0 L 0.71875 0 L 3.234375 -9.015625 C 3.328125 -9.316406 3.375 -9.585938 3.375 -9.828125 C 3.375 -10.148438 3.226562 -10.3125 2.9375 -10.3125 C 2.632812 -10.3125 2.351562 -10.144531 2.09375 -9.8125 C 1.832031 -9.488281 1.566406 -8.941406 1.296875 -8.171875 L 1.03125 -7.390625 L 0.625 -7.390625 L 1.15625 -8.921875 C 1.65625 -10.367188 2.503906 -11.09375 3.703125 -11.09375 C 4.492188 -11.09375 4.890625 -10.6875 4.890625 -9.875 C 4.890625 -9.476562 4.789062 -8.898438 4.59375 -8.140625 L 3.921875 -5.5 C 4.679688 -7.53125 5.394531 -8.96875 6.0625 -9.8125 C 6.726562 -10.664062 7.472656 -11.09375 8.296875 -11.09375 Z M 8.296875 -11.09375 "/></g></g></g><g fill="#ffffff" fill-opacity="1"><g transform="translate(233.716578, 314.449549)"><g><path d="M 8.53125 -11.09375 C 9.257812 -11.09375 9.625 -10.523438 9.625 -9.390625 C 9.625 -8.054688 9.207031 -6.515625 8.375 -4.765625 C 7.550781 -3.015625 6.585938 -1.445312 5.484375 -0.0625 C 4.179688 1.5625 2.800781 2.722656 1.34375 3.421875 C 0.601562 3.773438 -0.00390625 3.953125 -0.484375 3.953125 C -0.773438 3.953125 -1.019531 3.875 -1.21875 3.71875 C -1.425781 3.5625 -1.53125 3.351562 -1.53125 3.09375 C -1.53125 2.789062 -1.414062 2.554688 -1.1875 2.390625 C -0.96875 2.222656 -0.707031 2.140625 -0.40625 2.140625 C -0.101562 2.140625 0.179688 2.210938 0.453125 2.359375 C 0.722656 2.503906 1.019531 2.707031 1.34375 2.96875 C 2.4375 2.375 3.488281 1.53125 4.5 0.4375 L 2.9375 -8.96875 C 2.863281 -9.40625 2.78125 -9.707031 2.6875 -9.875 C 2.59375 -10.039062 2.453125 -10.125 2.265625 -10.125 C 2.085938 -10.125 1.898438 -9.984375 1.703125 -9.703125 C 1.515625 -9.429688 1.289062 -8.925781 1.03125 -8.1875 L 0.75 -7.40625 L 0.359375 -7.40625 L 0.875 -8.953125 C 1.363281 -10.378906 2.171875 -11.09375 3.296875 -11.09375 C 3.742188 -11.09375 4.082031 -10.953125 4.3125 -10.671875 C 4.539062 -10.390625 4.707031 -9.882812 4.8125 -9.15625 L 5.875 -1.265625 C 6.644531 -2.328125 7.3125 -3.441406 7.875 -4.609375 C 8.4375 -5.773438 8.828125 -6.929688 9.046875 -8.078125 C 8.628906 -8.304688 8.257812 -8.582031 7.9375 -8.90625 C 7.613281 -9.238281 7.453125 -9.609375 7.453125 -10.015625 C 7.453125 -10.335938 7.550781 -10.597656 7.75 -10.796875 C 7.957031 -10.992188 8.21875 -11.09375 8.53125 -11.09375 Z M 8.53125 -11.09375 "/></g></g></g></svg>